<?xml version="1.0" standalone="no"?>
<!DOCTYPE svg PUBLIC "-//W3C//DTD SVG 20010904//EN"
 "http://www.w3.org/TR/2001/REC-SVG-20010904/DTD/svg10.dtd">
<svg version="1.0" xmlns="http://www.w3.org/2000/svg"
 width="140.000000pt" height="140.000000pt" viewBox="0 0 140.000000 140.000000"
 preserveAspectRatio="xMidYMid meet">

<g transform="translate(0.000000,140.000000) scale(0.100000,-0.100000)"
fill="#000000" stroke="none">
<path d="M722 1388 c-7 -7 -12 -19 -12 -28 0 -25 29 -60 50 -60 30 0 87 -56
163 -160 120 -162 207 -228 319 -245 56 -8 131 2 108 15 -8 4 -35 11 -60 15
-109 18 -186 85 -302 265 -41 63 -90 130 -109 149 -55 54 -129 77 -157 49z"/>
<path d="M555 1347 c-209 -85 -355 -235 -411 -422 -27 -91 -23 -246 9 -355 54
-182 149 -343 274 -467 56 -56 80 -73 102 -73 34 0 111 63 111 91 0 12 -39 57
-96 111 -118 113 -198 232 -255 376 -75 193 -65 357 32 502 49 72 133 145 248
213 115 68 111 75 -14 24z"/>
<path d="M540 1037 c-33 -17 -35 -34 -15 -121 23 -104 59 -157 132 -192 55
-27 65 -29 178 -28 103 1 140 6 257 37 144 37 238 74 275 109 25 23 34 59 10
39 -21 -16 -121 -40 -268 -61 -150 -22 -254 -25 -328 -9 -74 16 -98 39 -111
107 -27 139 -21 127 -65 130 -22 1 -51 -4 -65 -11z"/>
<path d="M684 572 c-21 -15 -44 -57 -44 -82 0 -19 8 -30 30 -41 112 -54 268
-243 322 -391 l21 -58 78 0 c93 0 92 -2 54 114 -31 96 -54 142 -118 234 -87
126 -223 232 -297 232 -19 0 -40 -4 -46 -8z"/>
<path d="M152 113 c-18 -32 17 -113 49 -113 18 0 20 4 15 25 -8 31 -6 31 83 0
l72 -24 10 26 c5 15 8 32 5 38 -3 9 -193 65 -220 65 -3 0 -9 -7 -14 -17z"/>
</g>
</svg>
